<?xml version="1.0" encoding="UTF-8" standalone="no"?>
<!-- Created with Inkscape (http://www.inkscape.org/) -->

<svg
   width="512"
   height="512"
   viewBox="0 0 512 512"
   version="1.1"
   id="svg1"
   sodipodi:docname="logo.svg"
   inkscape:version="1.4 (1:1.4+202410161351+e7c3feb100)"
   xmlns:inkscape="http://www.inkscape.org/namespaces/inkscape"
   xmlns:sodipodi="http://sodipodi.sourceforge.net/DTD/sodipodi-0.dtd"
   xmlns="http://www.w3.org/2000/svg"
   xmlns:svg="http://www.w3.org/2000/svg"
   xmlns:rdf="http://www.w3.org/1999/02/22-rdf-syntax-ns#"
   xmlns:cc="http://creativecommons.org/ns#"
   xmlns:dc="http://purl.org/dc/elements/1.1/">
  <sodipodi:namedview
     id="namedview1"
     pagecolor="#ffffff"
     bordercolor="#666666"
     borderopacity="1.0"
     inkscape:showpageshadow="2"
     inkscape:pageopacity="0.0"
     inkscape:pagecheckerboard="0"
     inkscape:deskcolor="#d1d1d1"
     inkscape:zoom="0.99888781"
     inkscape:cx="318.85463"
     inkscape:cy="278.81009"
     inkscape:window-width="2560"
     inkscape:window-height="1342"
     inkscape:window-x="0"
     inkscape:window-y="24"
     inkscape:window-maximized="1"
     inkscape:current-layer="svg1" />
  <title
     id="title6">gah logo</title>
  <defs
     id="defs1" />
  <path
     id="path2"
     style="font-size:74.0152px;line-height:1.25;font-family:Dyuthi;-inkscape-font-specification:'Dyuthi, Normal';letter-spacing:0px;word-spacing:0px;fill:#ffffff;stroke-width:20;stroke:#ffffff;stroke-dasharray:none"
     d="M 326.23242 143.99219 C 321.01499 143.99219 316.42878 145.79045 312.4707 149.38867 C 308.8725 153.25677 307.07227 157.80014 307.07227 163.01758 L 307.07227 301.32422 C 307.07227 306.81151 308.8725 311.35489 312.4707 314.95312 C 316.1589 318.55136 320.7003 320.34961 326.09766 320.34961 L 326.23242 320.34961 C 331.5398 320.34961 336.08318 318.55136 339.86133 314.95312 C 343.63947 311.26494 345.5293 306.72156 345.5293 301.32422 L 345.5293 243.97656 C 345.43934 237.22987 349.80153 231.20386 358.61719 225.89648 C 367.34292 220.49914 375.70878 219.73346 383.71484 223.60156 C 391.7209 227.55962 395.72461 236.42037 395.72461 250.18359 L 395.72461 301.59375 C 395.72461 306.90114 397.52285 311.35489 401.12109 314.95312 C 404.80928 318.55136 409.26304 320.34961 414.48047 320.34961 L 414.88477 320.34961 C 420.19217 320.34961 424.64398 318.55136 428.24219 314.95312 C 432.02033 311.26494 433.91016 306.81118 433.91016 301.59375 L 433.64062 257.74023 C 433.64062 238.48969 428.918 222.79246 419.47266 210.64844 C 409.93735 198.5044 394.95905 193.51292 374.53906 195.67188 C 365.5435 196.66138 356.00865 201.60806 345.93359 210.51367 L 345.5293 162.74805 C 345.5293 157.44065 343.72909 152.98691 340.13086 149.38867 C 336.26276 145.79045 331.72133 143.99219 326.50391 143.99219 L 326.23242 143.99219 z M 462.51562 145.07031 C 457.92789 145.16027 454.15016 146.82605 451.18164 150.06445 C 448.03313 153.30287 446.54856 157.21499 446.72852 161.80273 L 450.91211 242.62891 C 451.182 246.85683 452.80101 250.3637 455.76953 253.15234 C 459.00794 255.94096 462.74083 257.33594 466.96875 257.33594 C 471.19668 257.33594 474.88475 255.94096 478.0332 253.15234 C 480.9118 250.3637 482.5308 246.85683 482.89062 242.62891 L 487.07422 161.80273 C 487.43404 157.21499 485.94946 153.30287 482.62109 150.06445 C 479.65254 146.73609 475.87485 145.07031 471.28711 145.07031 L 462.51562 145.07031 z M 81.058594 194.32227 C 64.686636 194.32227 50.742856 200.395 39.228516 212.53906 C 27.714172 224.68309 21.957031 239.3906 21.957031 256.66211 C 21.957031 273.93364 27.714172 288.64113 39.228516 300.78516 C 50.742856 312.92919 64.686636 319 81.058594 319 C 91.223599 318.91004 100.75844 316.25649 109.66406 311.03906 C 110.29376 329.56994 102.55717 338.83594 86.455078 338.83594 C 75.750337 338.83594 65.720637 338.74637 56.365234 338.56641 C 49.528592 338.47645 44.940413 341.71447 42.601562 348.28125 L 42.332031 348.41602 C 40.712827 353.00376 41.342119 357.36594 44.220703 361.50391 C 47.09929 365.64187 51.01337 367.71094 55.960938 367.71094 C 66.485768 367.8008 73.951542 367.8008 78.359375 367.71094 C 82.767211 367.71094 85.557137 367.75584 86.726562 367.8457 C 104.08804 368.92519 118.65915 364.60782 130.44336 354.89258 C 142.22757 345.26732 148.25552 331.00986 148.52539 312.11914 L 148.79492 312.11914 L 148.79492 212.26758 C 148.70497 207.76976 147.04115 203.90245 143.80273 200.66406 C 140.56433 197.42565 136.74182 195.80664 132.33398 195.80664 L 116.54688 195.80664 C 114.74776 195.80664 113.21837 196.48074 111.95898 197.83008 C 110.6996 199.08945 110.02355 200.57403 109.93359 202.2832 C 100.84806 196.97579 91.223599 194.32227 81.058594 194.32227 z M 222.73828 194.86133 C 206.36633 194.86133 192.4245 200.9341 180.91016 213.07812 C 169.39582 225.22216 163.63867 239.92967 163.63867 257.20117 C 163.63867 274.38275 169.39582 289.04542 180.91016 301.18945 C 192.4245 313.33348 206.36633 319.40625 222.73828 319.40625 C 227.32603 319.40625 234.07289 316.52669 242.97852 310.76953 C 245.13744 309.33022 247.43251 308.79057 249.86133 309.15039 C 252.29015 309.51021 255.0333 311.30846 258.0918 314.54688 C 261.15028 317.78529 263.84864 319.40625 266.1875 319.40625 L 282.37891 319.40625 C 284.53783 319.40625 286.38285 318.68537 287.91211 317.24609 C 289.53131 315.80678 290.33984 313.91891 290.33984 311.58008 L 290.33984 213.07812 C 290.33984 209.12007 288.94684 205.65605 286.1582 202.6875 C 283.36959 200.07877 279.99516 198.77539 276.03711 198.77539 L 265.64844 198.77539 C 261.69038 198.77539 258.4056 200.07877 255.79688 202.6875 C 252.82833 205.65605 251.3457 209.12007 251.3457 213.07812 C 246.03832 200.9341 236.50152 194.86133 222.73828 194.86133 z M 228.47656 216.86719 C 231.46619 217.00634 234.41142 217.63094 237.3125 218.74414 C 245.0487 221.62271 249.7265 225.62641 251.3457 230.75391 L 251.3457 276.36133 C 251.3457 286.3464 247.07118 292.82246 238.52539 295.79102 C 234.29746 297.05039 230.11453 297.45564 225.97656 297.00586 C 218.96001 297.18577 212.97882 293.99254 208.03125 287.42578 C 203.08368 280.859 200.60938 272.89839 200.60938 263.54297 L 200.60938 254.63672 C 200.60937 235.56609 204.79232 224.09662 213.1582 220.22852 C 218.38688 217.75473 223.49385 216.63527 228.47656 216.86719 z M 86.833984 218.63867 C 89.798309 218.76517 92.729785 219.38484 95.630859 220.49805 C 103.36706 223.46659 108.13448 227.55992 109.93359 232.77734 L 109.93359 277.03711 C 109.75368 287.2021 105.3915 293.76777 96.845703 296.73633 C 92.61778 298.08568 88.524461 298.44612 84.566406 297.81641 C 77.549854 297.81641 71.479044 294.5316 66.351562 287.96484 C 61.403995 281.30811 58.929687 273.39228 58.929688 264.2168 L 58.929688 249.50977 C 58.83973 243.30281 59.963884 237.68009 62.302734 232.64258 C 64.641585 227.60506 67.78999 224.09623 71.748047 222.11719 C 76.864283 219.58718 81.893443 218.42783 86.833984 218.63867 z M 467.10352 273.12305 C 460.71667 273.12305 455.23034 275.46098 450.64258 280.13867 C 446.05484 284.72642 443.75977 290.16988 443.75977 296.4668 C 443.75977 302.76371 446.05484 308.16042 450.64258 312.6582 C 455.23034 317.15599 460.71667 319.40625 467.10352 319.40625 C 473.58034 319.40625 478.93224 317.11118 483.16016 312.52344 C 487.7479 308.1156 490.04297 302.7189 490.04297 296.33203 C 490.04297 289.8552 487.7479 284.41174 483.16016 280.00391 C 478.84228 275.41617 473.49038 273.12305 467.10352 273.12305 z " />
  <path
     style="font-size:74.0152px;line-height:1.25;font-family:Dyuthi;-inkscape-font-specification:'Dyuthi, Normal';letter-spacing:0px;word-spacing:0px;fill:#000000;stroke-width:1.85038"
     d="m 109.93425,277.03618 q 0,0 0,-44.25827 -2.69867,-7.82614 -14.30297,-12.27896 -11.604298,-4.45282 -23.883265,1.61919 -5.937086,2.96856 -9.445362,10.52484 -3.508276,7.55627 -3.373339,16.86671 v 14.7078 q 0,13.76322 7.421351,23.74832 7.691223,9.85014 18.216052,9.85014 5.937082,0.94457 12.278966,-1.07946 12.818697,-4.45283 13.088567,-19.70031 z m 6.61175,-81.23009 h 15.78725 q 6.61175,0 11.46936,4.85762 4.85762,4.85758 4.99255,11.6043 v 99.85093 h -0.26986 q -0.4048,28.33608 -18.08112,42.77397 -17.67631,14.57286 -43.718519,12.95363 -1.754138,-0.13479 -8.365892,-0.13479 -6.61175,0.13479 -22.398996,0 -7.421351,0 -11.739232,-6.20694 -4.317876,-6.20695 -1.88907,-13.08856 l 0.269865,-0.13479 q 3.508276,-9.85017 13.763239,-9.71524 14.033104,0.26994 30.090216,0.26994 24.153139,0 23.208599,-27.79631 -13.358438,7.82614 -28.605946,7.96108 -24.557936,0 -41.829447,-18.21605 -17.271515,-18.21604 -17.271515,-44.12333 0,-25.90726 17.271515,-44.1233 17.271511,-18.21609 41.829447,-18.21609 15.247508,0 28.875816,7.96112 0.13493,-2.56376 2.024,-4.45282 1.88908,-2.024 4.58775,-2.024 z m 84.06371,58.83109 q 0,0 0,8.9056 0,14.03313 7.42135,23.8833 7.42135,9.85014 17.94618,9.58027 6.20695,0.67467 12.54884,-1.21439 12.81869,-4.45283 12.81869,-19.43044 0,0 0,-45.6076 -2.4288,-7.69125 -14.0331,-12.0091 -11.6043,-4.45282 -24.15313,1.48426 -12.54883,5.80215 -12.54883,34.4081 z m -19.70033,46.55213 q -17.27151,-18.21605 -17.27151,-43.98841 0,-25.90725 17.27151,-44.1233 17.27152,-18.21604 41.82945,-18.21604 20.64486,0 28.60594,18.21604 0,-5.93708 4.45282,-10.3899 3.91309,-3.91309 9.85017,-3.91309 h 10.3899 q 5.93708,0 10.12,3.91309 4.18296,4.45282 4.18296,10.3899 v 98.50161 q 0,3.50825 -2.4288,5.66722 -2.29389,2.15892 -5.53228,2.15892 h -16.19205 q -3.50829,0 -8.09601,-4.85762 -4.58775,-4.85762 -8.23098,-5.39735 -3.64322,-0.53973 -6.88161,1.61923 -13.35844,8.63574 -20.24006,8.63574 -24.55793,0 -41.82945,-18.21604 z m 252.73084,-43.44868 q 0,0 0.26994,43.85347 0,7.82615 -5.66722,13.35843 -5.39731,5.39735 -13.35842,5.39735 h -0.4048 q -7.82614,0 -13.35842,-5.39735 -5.39736,-5.39735 -5.39736,-13.35843 v -51.40974 q 0,-20.64484 -12.00909,-26.58192 -12.0091,-5.80215 -25.0977,2.29386 -13.22349,7.96107 -13.08856,18.08111 v 57.34683 q 0,8.09601 -5.66721,13.62829 -5.66722,5.39735 -13.62829,5.39735 h -0.13479 q -8.09604,0 -13.62833,-5.39735 -5.39731,-5.39735 -5.39731,-13.62829 V 163.01719 q 0,-7.82616 5.39731,-13.62831 5.93712,-5.39734 13.76327,-5.39734 h 0.26994 q 7.82614,0 13.62829,5.39734 5.39735,5.39735 5.39735,13.35844 l 0.4048,47.76652 q 15.11259,-13.35842 28.60594,-14.84268 30.62998,-3.23843 44.93294,14.97762 14.16802,18.21604 14.16802,47.09185 z"
     id="path5" />
  <path
     style="font-size:74.0152px;line-height:1.25;font-family:Dyuthi;-inkscape-font-specification:'Dyuthi, Normal';letter-spacing:0px;word-spacing:0px;fill:#d8d440;stroke-width:1.85038"
     d="m 487.074,161.80278 q 0,0 -4.18296,80.8253 -0.53973,6.34188 -4.85762,10.52484 -4.72268,4.18292 -11.06457,4.18292 -6.34188,0 -11.1995,-4.18292 -4.45278,-4.18296 -4.85761,-10.52484 l -4.18292,-80.8253 q -0.26994,-6.88161 4.45282,-11.73923 4.45278,-4.85761 11.33439,-4.99254 h 8.77071 q 6.88161,0 11.33444,4.99254 4.99255,4.85762 4.45282,11.73923 z m -3.91309,150.72096 q -6.34188,6.88161 -16.05712,6.88161 -9.58027,0 -16.46192,-6.74668 -6.88161,-6.74668 -6.88161,-16.19205 0,-9.44537 6.88161,-16.32699 6.88165,-7.01654 16.46192,-7.01654 9.5803,0 16.05712,6.88161 6.88161,6.61175 6.88161,16.32699 0,9.5803 -6.88161,16.19205 z"
     id="path6" />
  <metadata
     id="metadata6">
    <rdf:RDF>
      <cc:Work
         rdf:about="">
        <dc:title>gah logo</dc:title>
        <dc:date>04.12.2024</dc:date>
        <dc:creator>
          <cc:Agent>
            <dc:title>Marek Sierociński</dc:title>
          </cc:Agent>
        </dc:creator>
      </cc:Work>
    </rdf:RDF>
  </metadata>
</svg>
